<?xml version="1.0" encoding="UTF-8" standalone="no"?>
<svg
   width="1024"
   height="1024"
   viewBox="0 0 1024 1024"
   fill="none"
   version="1.1"
   id="svg7"
   sodipodi:docname="Cal.com.svg"
   inkscape:version="1.3 (0e150ed6c4, 2023-07-21)"
   xmlns:inkscape="http://www.inkscape.org/namespaces/inkscape"
   xmlns:sodipodi="http://sodipodi.sourceforge.net/DTD/sodipodi-0.dtd"
   xmlns="http://www.w3.org/2000/svg"
   xmlns:svg="http://www.w3.org/2000/svg">
  <defs
     id="defs7" />
  <sodipodi:namedview
     id="namedview7"
     pagecolor="#ffffff"
     bordercolor="#000000"
     borderopacity="0.25"
     inkscape:showpageshadow="2"
     inkscape:pageopacity="0.0"
     inkscape:pagecheckerboard="0"
     inkscape:deskcolor="#d1d1d1"
     inkscape:zoom="0.47408296"
     inkscape:cx="-464.05381"
     inkscape:cy="107.57611"
     inkscape:window-width="1920"
     inkscape:window-height="1176"
     inkscape:window-x="1200"
     inkscape:window-y="325"
     inkscape:window-maximized="1"
     inkscape:current-layer="svg7" />
  <path
     d="m 172.43315,571.91029 c -48.90826,0 -85.745987,-38.70939 -85.745987,-86.49959 0,-47.94885 34.956687,-86.97721 85.745987,-86.97721 26.96195,0 45.61547,8.28352 60.19405,27.24019 l -23.51362,19.59382 c -9.87534,-10.51378 -21.789,-15.77062 -36.68043,-15.77062 -33.07583,0 -51.25962,25.32857 -51.25962,55.91382 0,30.58593 19.90805,55.43626 51.25962,55.43626 14.73457,0 27.27567,-5.25651 37.15101,-15.77037 l 23.19988,20.39005 c -13.95112,18.15993 -33.07522,26.44365 -60.35089,26.44365 z"
     fill="#292929"
     id="path1"
     style="stroke-width:8.52496" />
  <path
     d="m 334.0489,444.62386 h 31.66434 V 568.87711 H 334.0489 v -18.15993 c -6.58384,12.90341 -17.5572,21.50512 -38.5619,21.50512 -33.5458,0 -60.35177,-29.15117 -60.35177,-64.99361 0,-35.84261 26.80597,-64.99439 60.35177,-64.99439 20.84869,0 31.97806,8.60222 38.5619,21.50547 z m 0.94031,62.60483 c 0,-19.43441 -13.32455,-35.52395 -34.32925,-35.52395 -20.22211,0 -33.3898,16.24811 -33.3898,35.52395 0,18.79672 13.16769,35.52361 33.3898,35.52361 20.84869,0 34.32925,-16.24862 34.32925,-35.52361 z"
     fill="#292929"
     id="path2"
     style="stroke-width:8.52496" />
  <path
     d="m 388.12969,394.44573 h 31.66433 v 174.27366 h -31.66433 z"
     fill="#292929"
     id="path3"
     style="stroke-width:8.52496" />
  <path
     d="m 433.90203,552.31306 c 0,-10.19502 8.15157,-18.79758 19.28094,-18.79758 11.13021,0 18.96809,8.60256 18.96809,18.79758 0,10.51386 -7.99473,19.11557 -18.96809,19.11557 -10.97251,0 -19.28094,-8.60171 -19.28094,-19.11557 z"
     fill="#292929"
     id="path4"
     style="stroke-width:8.52496" />
  <path
     d="m 593.32346,548.80588 c -11.75682,14.33647 -29.62688,23.41642 -50.78929,23.41642 -37.77846,0 -65.52388,-29.15117 -65.52388,-64.99361 0,-35.84261 27.74542,-64.99439 65.52388,-64.99439 20.37811,0 38.09217,8.60222 49.84897,22.14263 l -24.45391,20.54955 c -6.11411,-7.64631 -14.10884,-13.38107 -25.39506,-13.38107 -20.22126,0 -33.38895,16.24887 -33.38895,35.52386 0,19.27499 13.16769,35.52361 33.38895,35.52361 12.22738,0 20.69182,-6.37157 26.96195,-14.97414 z"
     fill="#292929"
     id="path5"
     style="stroke-width:8.52496" />
  <path
     d="m 595.98836,507.22869 c 0,-35.84261 27.74541,-64.99439 65.52386,-64.99439 37.77846,0 65.52387,29.15178 65.52387,64.99439 0,35.84244 -27.74541,64.99361 -65.52387,64.99361 -37.77845,-0.15942 -65.52386,-29.15117 -65.52386,-64.99361 z m 98.91281,0 c 0,-19.43441 -13.16769,-35.52395 -33.38895,-35.52395 -20.22125,-0.15933 -33.38894,16.08954 -33.38894,35.52395 0,19.27499 13.16769,35.52361 33.38894,35.52361 20.22126,0 33.38895,-16.24862 33.38895,-35.52361 z"
     fill="#292929"
     id="path6"
     style="stroke-width:8.52496" />
  <path
     d="m 941.16322,492.89393 v 75.82631 h -31.66181 v -68.02083 c 0,-21.50521 -10.03221,-30.74458 -25.08051,-30.74458 -14.10885,0 -24.14104,7.00915 -24.14104,30.74458 v 68.02083 h -31.66435 v -68.02083 c 0,-21.50521 -10.1899,-30.74458 -25.08135,-30.74458 -14.10799,0 -26.49223,7.00915 -26.49223,30.74458 v 68.02083 H 745.37759 V 444.46691 h 31.66434 v 17.20435 c 6.58385,-13.38115 18.49751,-20.07172 36.83815,-20.07172 17.40035,0 31.97806,8.60213 39.97279,23.09836 7.99473,-14.81481 19.75154,-23.09836 41.06996,-23.09836 26.02166,0.15933 46.24039,19.91239 46.24039,51.29439 z"
     fill="#292929"
     id="path7"
     style="stroke-width:8.52496" />
</svg>
