<?xml version="1.0" encoding="UTF-8" standalone="no"?>
<svg
   viewBox="0 0 1024 1024"
   version="1.1"
   id="svg1"
   sodipodi:docname="deSEC.svg"
   inkscape:version="1.3.2 (091e20ef0f, 2023-11-25)"
   xmlns:inkscape="http://www.inkscape.org/namespaces/inkscape"
   xmlns:sodipodi="http://sodipodi.sourceforge.net/DTD/sodipodi-0.dtd"
   xmlns="http://www.w3.org/2000/svg"
   xmlns:svg="http://www.w3.org/2000/svg">
  <defs
     id="defs1" />
  <sodipodi:namedview
     id="namedview1"
     pagecolor="#ffffff"
     bordercolor="#000000"
     borderopacity="0.25"
     inkscape:showpageshadow="2"
     inkscape:pageopacity="0.0"
     inkscape:pagecheckerboard="0"
     inkscape:deskcolor="#d1d1d1"
     inkscape:zoom="0.71608372"
     inkscape:cx="440.59094"
     inkscape:cy="849.06273"
     inkscape:window-width="1716"
     inkscape:window-height="1414"
     inkscape:window-x="2"
     inkscape:window-y="24"
     inkscape:window-maximized="1"
     inkscape:current-layer="svg1" />
  <circle
     cx="512"
     cy="512"
     r="512"
     style="fill:#e4c15f;fill-opacity:0.97647059"
     id="circle1" />
  <g
     id="g3"
     transform="translate(-12.637766,-4.4994725)">
    <g
       stroke="currentColor"
       fill="none"
       fill-rule="evenodd"
       id="g2"
       transform="translate(104.56777,110.5)">
      <path
         d="m 466.657,271.14 c 29.884,0 36.176,35.846 66.607,35.846 18.368,0 37.236,-35.795 59.947,-35.846 26.562,-0.06 32.75,31.192 61.44,31.192 28.69,0 39.967,-31.192 58.663,-31.192 25.106,0 94.407,103.61 50.37,20.716 C 668.75,113.156 577.347,35 407,35 236.653,35 132.27,118.36 44.276,302.332 c -25.417,53.14 12.21,-26.675 51.915,-26.675 30.669,0 30.669,31.329 62.823,31.329 32.154,0 32.154,-31.329 63.178,-31.329 32.117,0 41.184,30.182 64.861,31.329 19.996,0.969 35.772,-35.846 58.786,-35.846 23.014,0 36.901,31.192 62.233,31.192 25.332,0 38.997,-31.192 58.585,-31.192 z"
         stroke-width="70"
         id="path1" />
      <path
         d="M 408,321 V 711.09 C 408,761.316 448.486,773 476.463,773 510.154,773 527,752.364 527,711.09"
         stroke-width="60"
         stroke-linecap="round"
         stroke-linejoin="round"
         id="path2" />
    </g>
    <rect
       style="fill:#000000;fill-opacity:0.973545"
       id="rect1"
       width="604.77008"
       height="86.965767"
       x="200.75877"
       y="299.19122" />
    <rect
       style="fill:#000000;fill-opacity:0.973545"
       id="rect2"
       width="442.18152"
       height="112.61882"
       x="285.30325"
       y="221.30861" />
    <rect
       style="fill:#000000;fill-opacity:0.973545"
       id="rect3"
       width="113.82204"
       height="121.36549"
       x="691.70685"
       y="221.30861"
       ry="35.312363" />
    <rect
       style="fill:#000000;fill-opacity:0.973545"
       id="rect4"
       width="83.497177"
       height="42.570251"
       x="248.72655"
       y="256.62097" />
    <rect
       style="fill:#000000;fill-opacity:0.973545"
       id="rect5"
       width="359.48312"
       height="57.752316"
       x="332.22372"
       y="163.55629" />
    <rect
       style="fill:#000000;fill-opacity:0.973545"
       id="rect6"
       width="359.48312"
       height="150.24165"
       x="332.22372"
       y="192.43245"
       ry="35.312363" />
    <rect
       style="fill:#000000;fill-opacity:0.973545"
       id="rect7"
       width="161.85258"
       height="66.374153"
       x="220.63063"
       y="267.55328"
       ry="33.187077" />
  </g>
</svg>
