<?xml version="1.0" encoding="UTF-8" standalone="no"?>
<svg
   version="1.0"
   width="1024pt"
   height="1024pt"
   viewBox="0 0 1024 1024"
   preserveAspectRatio="xMidYMid"
   id="svg12"
   xmlns="http://www.w3.org/2000/svg"
   xmlns:svg="http://www.w3.org/2000/svg">
  <defs
     id="defs16" />
  <g
     transform="matrix(0.1,0,0,-0.1,13.587836,955.91621)"
     fill="#000000"
     stroke="none"
     id="g10"
     style="fill:#cc0000;fill-opacity:1">
    <path
       d="m 3550,9055 c -108,-19 -174,-41 -270,-91 -194,-100 -328,-257 -399,-469 -125,-374 3,-783 312,-994 219,-150 551,-191 832,-104 393,123 632,489 585,897 -48,409 -317,697 -715,761 -108,18 -243,18 -345,0 z"
       id="path2"
       style="fill:#cc0000;fill-opacity:1" />
    <path
       d="m 7810,6573 c -559,-41 -1079,-229 -1440,-520 -41,-34 -122,-110 -180,-170 -270,-280 -431,-613 -486,-1003 -24,-171 -15,-457 19,-600 76,-319 233,-584 490,-826 279,-262 621,-456 1139,-644 530,-193 765,-314 924,-475 245,-248 246,-678 1,-919 -84,-82 -154,-126 -275,-172 -148,-55 -263,-75 -484,-81 -218,-6 -344,4 -553,43 -341,65 -674,180 -972,334 l -153,79 -15,-52 C 5718,1190 5521,466 5525,460 5535,444 5781,330 5913,280 6534,49 7302,-34 8005,56 c 533,68 1000,251 1336,522 192,155 374,384 478,602 260,544 232,1256 -69,1745 -129,211 -335,415 -585,582 -220,146 -435,248 -860,408 -556,209 -789,329 -938,483 -116,120 -168,271 -153,441 40,437 460,672 1091,611 334,-33 686,-133 983,-280 76,-38 138,-67 139,-66 2,1 73,243 158,537 86,294 158,542 161,551 4,13 -12,26 -73,56 -329,165 -804,284 -1287,322 -118,9 -467,11 -576,3 z"
       id="path4"
       style="fill:#cc0000;fill-opacity:1" />
    <path
       d="M 2930,3295 V 150 h 795 795 v 3145 3145 h -795 -795 z"
       id="path6"
       style="fill:#cc0000;fill-opacity:1" />
    <path
       d="M 770,2031 C 528,1978 320,1842 191,1651 129,1561 64,1418 39,1320 12,1212 2,955 20,842 86,431 371,118 757,33 866,8 1096,9 1209,33 c 344,74 606,315 711,656 29,91 50,239 50,346 0,421 -202,766 -542,924 -137,65 -219,82 -408,87 -135,3 -180,0 -250,-15 z"
       id="path8"
       style="fill:#cc0000;fill-opacity:1" />
  </g>
</svg>
