<?xml version="1.0" encoding="UTF-8" standalone="no"?>
<svg
   viewBox="0 0 1024 1024"
   version="1.1"
   id="svg1"
   sodipodi:docname="Notesnook.svg"
   xml:space="preserve"
   inkscape:version="1.3 (0e150ed6c4, 2023-07-21)"
   xmlns:inkscape="http://www.inkscape.org/namespaces/inkscape"
   xmlns:sodipodi="http://sodipodi.sourceforge.net/DTD/sodipodi-0.dtd"
   xmlns:xlink="http://www.w3.org/1999/xlink"
   xmlns="http://www.w3.org/2000/svg"
   xmlns:svg="http://www.w3.org/2000/svg"><defs
     id="defs1"><linearGradient
       id="b"
       x1="193.9"
       x2="198.7"
       y1="166.8"
       y2="223.3"
       gradientTransform="matrix(2.9255349,0.25595114,-0.25595114,2.9255349,-349.47676,-403.66623)"
       gradientUnits="userSpaceOnUse"
       xlink:href="#a" /><linearGradient
       id="a"><stop
         offset="0"
         id="stop1" /><stop
         offset="1"
         stop-color="#fff9f9"
         stop-opacity="0"
         id="stop2" /></linearGradient><linearGradient
       id="c"
       x1="167.8"
       x2="270.6"
       y1="76.9"
       y2="64.2"
       gradientTransform="matrix(1.4951089,0.13080508,-0.13080508,1.4951089,-176.89981,-48.328289)"
       gradientUnits="userSpaceOnUse"
       xlink:href="#a" /></defs><sodipodi:namedview
     id="namedview1"
     pagecolor="#ffffff"
     bordercolor="#000000"
     borderopacity="0.25"
     inkscape:showpageshadow="2"
     inkscape:pageopacity="0.0"
     inkscape:pagecheckerboard="0"
     inkscape:deskcolor="#d1d1d1"
     inkscape:zoom="0.41503906"
     inkscape:cx="133.72235"
     inkscape:cy="522.84236"
     inkscape:window-width="1444"
     inkscape:window-height="1054"
     inkscape:window-x="2"
     inkscape:window-y="24"
     inkscape:window-maximized="1"
     inkscape:current-layer="svg1" /><circle
     cx="512"
     cy="512"
     r="512"
     style="fill:#ececec;fill-opacity:1"
     id="circle1" /><g
     id="g1"
     transform="matrix(3.5711641,0,0,3.5711641,144.43824,167.16825)"><path
       d="M 0,0 H 192 V 192 H 0 Z"
       fill="none"
       id="path1" /><path
       d="m 93.16,28.09 63.43,24.52 v 93.78 L 98.88,164 35.41,146.18 V 52.36 Z m 0,-12.09 a 10.87,10.87 0 0 0 -4.23,0.85 L 30.09,41.58 A 10.9,10.9 0 0 0 23.41,51.63 V 147 a 10.91,10.91 0 0 0 8,10.49 L 96,175.6 a 10.86,10.86 0 0 0 2.94,0.4 11,11 0 0 0 3.17,-0.47 l 58.79,-17.9 a 10.89,10.89 0 0 0 7.73,-10.42 V 51.86 a 10.89,10.89 0 0 0 -7,-10.17 l -64.54,-25 A 10.9,10.9 0 0 0 93.15,16 Z"
       id="path2-3" /><path
       d="M 50.02,118.55 V 75.08 l 26.83,37 V 68.6 M 107.23,81.14 143,90 M 107.23,113.14 143,122 M 107.25,97.09 132,103 M 32,149 93.22,131.15 160,149 M 93.22,128 V 24"
       fill="none"
       stroke="#000000"
       stroke-linecap="round"
       stroke-linejoin="round"
       stroke-width="12"
       id="path3-6" /></g></svg>
