<?xml version="1.0" encoding="UTF-8" standalone="no"?>
<svg
   viewBox="0 0 1024 1024"
   version="1.1"
   id="svg1"
   sodipodi:docname="Binance.svg"
   xml:space="preserve"
   inkscape:version="1.3.2 (091e20ef0f, 2023-11-25)"
   xmlns:inkscape="http://www.inkscape.org/namespaces/inkscape"
   xmlns:sodipodi="http://sodipodi.sourceforge.net/DTD/sodipodi-0.dtd"
   xmlns="http://www.w3.org/2000/svg"
   xmlns:svg="http://www.w3.org/2000/svg"><defs
     id="defs1"><clipPath
       clipPathUnits="userSpaceOnUse"
       id="clipPath5"><circle
         style="fill:#ffffff;fill-opacity:1;stroke-width:1.33731"
         id="circle5"
         cx="342.25"
         cy="342.25"
         r="342.25" /></clipPath></defs><sodipodi:namedview
     id="namedview1"
     pagecolor="#ffffff"
     bordercolor="#000000"
     borderopacity="0.25"
     inkscape:showpageshadow="2"
     inkscape:pageopacity="0.0"
     inkscape:pagecheckerboard="0"
     inkscape:deskcolor="#d1d1d1"
     inkscape:zoom="0.3587324"
     inkscape:cx="259.24617"
     inkscape:cy="592.36356"
     inkscape:window-width="1444"
     inkscape:window-height="1243"
     inkscape:window-x="420"
     inkscape:window-y="112"
     inkscape:window-maximized="1"
     inkscape:current-layer="svg1" /><style
     type="text/css"
     id="style1">
	.trans{opacity:0.5;fill:#FFFFFF;}
	.logo{fill:#9c0a7d;}
</style><g
     id="g1"
     transform="scale(1.4962006)"
     clip-path="url(#clipPath5)"><path
       class="trans"
       d="M 580.6,19.5 H 103.9 c -47.2,0 -85.4,38.2 -85.4,85.4 v 476.5 c 0,47.2 38.2,85.4 85.4,85.4 h 476.5 c 47.2,0 85.4,-38.2 85.4,-85.4 V 104.9 C 666,57.7 627.8,19.5 580.6,19.5 Z"
       id="path1" /><path
       class="logo"
       d="m 541.5,525.9 c -7.8,0 -15,5.9 -16.9,14.3 -0.4,1.7 -0.6,3.4 -0.6,5.3 v 13.6 c 0,1.9 0.2,3.6 0.6,5.1 1.9,7.8 8.6,13.7 16.9,13.7 12.4,0 20,-9.5 20,-26.2 0,-14.4 -6.5,-25.8 -20,-25.8 z"
       id="path2" /><path
       class="logo"
       d="m 331.4,524.2 c -13.9,0 -19,14.2 -19,27.9 0,15.9 6.6,27.9 19,27.9 11.2,0 18.4,-11.2 18.4,-27.9 0,-13.8 -5.3,-27.9 -18.4,-27.9 z"
       id="path3" /><path
       class="logo"
       d="M 594.2,0 H 90.3 C 40.4,0 0,40.4 0,90.3 v 503.8 c 0,49.9 40.4,90.3 90.3,90.3 h 503.8 c 49.9,0 90.3,-40.4 90.3,-90.3 V 90.3 C 684.5,40.4 644.1,0 594.2,0 Z M 264.6,598.6 h -28.9 v -51.5 c 0,-11.9 -4.1,-20.1 -14.6,-20.1 -7.9,0 -12.7,5.5 -14.6,10.8 -0.7,1.7 -1.1,4.5 -1.1,7.2 v 53.6 h -28.9 v -63.3 c 0,-11.5 -0.4,-21.4 -0.8,-29.6 h 25.1 l 1.3,12.7 h 0.6 c 3.8,-5.9 13.3,-14.8 28.7,-14.8 19,0 33.3,12.5 33.2,39.9 z m 66,2.1 c -27.2,0 -48.1,-17.9 -48.1,-47.9 0,-30 19.8,-49.2 49.6,-49.2 28.5,0 47.5,19.6 47.5,47.5 0,34 -24.1,49.6 -49,49.6 z m 130.8,-33.8 c -13.3,36.9 -22.2,51.7 -32.7,61 -10.1,8.7 -20.7,11.8 -27.9,12.7 l -6.1,-24.5 c 3.6,-0.6 8.2,-2.3 12.5,-4.9 4.4,-2.3 9.1,-6.8 12,-11.6 1,-1.3 1.5,-2.9 1.5,-4.2 0,-1 -0.2,-2.5 -1.3,-4.8 l -34,-84.9 h 32 v 0 l 13.9,45.6 c 1.5,5.5 3.4,12.4 4.6,17.3 h 0.6 c 1.3,-4.9 2.9,-12 4.2,-17.3 l 11.4,-45.6 h 31 z m 86.9,33.8 c -10.8,0 -21.3,-4 -27.9,-15 H 520 l -1.1,12.9 h -24.5 v 0 c 0.4,-6.1 0.8,-17.3 0.8,-27.7 V 463.7 H 524 v 53 h 0.4 c 5.5,-8 15.2,-13.1 28.1,-13.1 22.2,0 38.6,18.4 38.4,46.9 0,33.4 -21.3,50.2 -42.6,50.2 z"
       id="path4" /></g></svg>
