<?xml version="1.0" encoding="UTF-8" standalone="no"?>
<svg
   viewBox="0 0 1024 1024"
   version="1.1"
   id="svg1"
   sodipodi:docname="Notesnook.svg"
   xml:space="preserve"
   inkscape:version="1.3.2 (091e20ef0f, 2023-11-25)"
   xmlns:inkscape="http://www.inkscape.org/namespaces/inkscape"
   xmlns:sodipodi="http://sodipodi.sourceforge.net/DTD/sodipodi-0.dtd"
   xmlns="http://www.w3.org/2000/svg"
   xmlns:svg="http://www.w3.org/2000/svg"><defs
     id="defs1"><clipPath
       id="clip0_24_33"><rect
         width="1024"
         height="1024"
         rx="200"
         fill="white"
         id="rect3" /></clipPath></defs><sodipodi:namedview
     id="namedview1"
     pagecolor="#ffffff"
     bordercolor="#000000"
     borderopacity="0.25"
     inkscape:showpageshadow="2"
     inkscape:pageopacity="0.0"
     inkscape:pagecheckerboard="0"
     inkscape:deskcolor="#d1d1d1"
     inkscape:zoom="0.25366211"
     inkscape:cx="411.96535"
     inkscape:cy="1129.4552"
     inkscape:window-width="1444"
     inkscape:window-height="1243"
     inkscape:window-x="6"
     inkscape:window-y="53"
     inkscape:window-maximized="1"
     inkscape:current-layer="g3014" /><circle
     cx="512"
     cy="512"
     r="512"
     style="fill:#ff8800;fill-opacity:1"
     id="circle1" /><g
     transform="matrix(0.12502121,0,0,-0.12502121,80.355967,885.17588)"
     id="g3014"><g
       id="g1"
       transform="matrix(4.1498025,0,0,4.1498025,1146.9984,570.50563)"><path
         d="m 555.586,978.672 c -87.676,0 -158.738,71.098 -158.738,158.748 h 555.593 c 87.669,0 158.729,-71.06 158.729,-158.748 l -0.01,-555.602 c -87.67,0 -158.738,71.075 -158.738,158.735 l 0.019,317.5 c 0,43.828 -35.546,79.367 -79.375,79.367 h -317.48"
         id="path3016"
         style="fill:#ffffff;fill-opacity:1;fill-rule:nonzero;stroke:none" /><path
         d="m 793.691,740.547 c 0,43.836 -35.539,79.383 -79.367,79.383 H 79.3633 C 35.5273,819.93 0,784.383 0,740.547 V 105.578 C 0,61.7383 35.5273,26.1992 79.3633,26.1992 H 714.324 c 43.828,0 79.367,35.5391 79.367,79.3788 v 634.969"
         id="path3018"
         style="fill:#ffffff;fill-opacity:1;fill-rule:nonzero;stroke:none" /></g></g></svg>
