<?xml version="1.0" encoding="UTF-8" standalone="no"?>
<svg
   viewBox="0 0 1024 1024"
   version="1.1"
   id="svg1"
   sodipodi:docname="Temu.svg"
   inkscape:version="1.3.2 (091e20ef0f, 2023-11-25)"
   xmlns:inkscape="http://www.inkscape.org/namespaces/inkscape"
   xmlns:sodipodi="http://sodipodi.sourceforge.net/DTD/sodipodi-0.dtd"
   xmlns:xlink="http://www.w3.org/1999/xlink"
   xmlns="http://www.w3.org/2000/svg"
   xmlns:svg="http://www.w3.org/2000/svg">
  <defs
     id="defs1">
    <clipPath
       id="SVGID_2_">
				<use
   xlink:href="#SVGID_1_"
   style="overflow:visible"
   id="use1" />

			</clipPath>
    <rect
       id="SVGID_1_"
       x="143.92999"
       y="52.209999"
       width="468.70001"
       height="468.70001" />
  </defs>
  <sodipodi:namedview
     id="namedview1"
     pagecolor="#ffffff"
     bordercolor="#000000"
     borderopacity="0.25"
     inkscape:showpageshadow="2"
     inkscape:pageopacity="0.0"
     inkscape:pagecheckerboard="0"
     inkscape:deskcolor="#d1d1d1"
     inkscape:zoom="0.50732422"
     inkscape:cx="217.80943"
     inkscape:cy="1005.2743"
     inkscape:window-width="3440"
     inkscape:window-height="1416"
     inkscape:window-x="0"
     inkscape:window-y="24"
     inkscape:window-maximized="1"
     inkscape:current-layer="svg1" />
  <circle
     cx="512"
     cy="512"
     r="512"
     style="fill:#fb7701;fill-opacity:1"
     id="circle1" />
  <rect
     style="fill:#00ff00;fill-opacity:0"
     id="rect5"
     width="506.57941"
     height="406.05197"
     x="240.47739"
     y="266.10202" />
  <rect
     style="fill:#ffffff;fill-opacity:0;stroke:#f9f9f9;stroke-width:258.229;stroke-dasharray:none;stroke-opacity:1"
     id="rect6"
     width="348.73956"
     height="175.28047"
     x="341.07968"
     y="404.15573"
     inkscape:label="rect6" />
  <g
     id="g4"
     transform="matrix(1.6182111,0,0,1.6182111,779.72147,18.294111)">
	
	
<rect
   style="fill:#000000;fill-opacity:0;stroke-width:0.587433"
   id="rect2"
   width="68.599998"
   height="48.5"
   x="283.03"
   y="247.20999" />
<rect
   style="fill:#000000;fill-opacity:0;stroke-width:0.587433"
   id="rect3"
   width="228.68617"
   height="108.26409"
   x="-278.54144"
   y="159.47997" />
<rect
   style="fill:#000000;fill-opacity:0;stroke-width:0.587433"
   id="rect4"
   width="121.57999"
   height="5.7895164"
   x="-138.43498"
   y="159.47997" />
<g
   id="g3"
   transform="translate(-540.22836,7.1340491)">
		<g
   id="g2">
			<defs
   id="defs2">
				<rect
   id="rect1"
   x="143.92999"
   y="52.209999"
   width="468.70001"
   height="468.70001" />

			</defs>

			<clipPath
   id="clipPath2">
				<use
   xlink:href="#SVGID_1_"
   style="overflow:visible"
   id="use2" />

			</clipPath>

			<path
   class="st1"
   d="m 506.43,213.61 v 0.7 c 0,5.9 4.9,10.8 10.8,10.8 6,0 10.8,-4.9 10.8,-10.8 v -0.7 c 0,-2.7 9.6,-2.7 9.6,0 v 0.7 c 0,11.3 -9.2,20.4 -20.5,20.4 -11.3,0 -20.4,-9.2 -20.4,-20.4 v -0.7 c 0.1,-2.6 9.7,-2.6 9.7,0 z m -179.8,36.3 c 7.2,0 12.7,3.5 14.7,10.1 -4.9,1.3 -9.8,1.9 -14.8,1.9 -7.5,0 -10.2,-0.7 -15,-2 1.9,-5.8 8.3,-10 15.1,-10 z m 202.6,-56.7 h -23.9 c -15.4,0 -28.2,11.9 -29.3,27.3 l -1.7,24.7 c -0.8,11.7 8.5,21.6 20.2,21.7 h 45.5 c 11.8,0 21,-9.9 20.2,-21.7 l -1.7,-24.7 c -1.1,-15.4 -13.9,-27.3 -29.3,-27.3 z m -83.5,-1.2 c -14.6,13.9 -0.6,44.2 -27.2,57 -2.9,1.4 -5.4,-3.2 -9.3,-3.2 -11.1,0.1 -32.4,9.9 -33.2,14.8 -0.7,4.1 8.4,7.3 35.1,7.4 23.3,0 30.8,-35.4 38.9,-35.4 8.1,0 4.3,32.1 3.5,35.4 h 8.5 c -0.7,-3.3 -1.3,-13.4 -1.2,-27.6 0,-14.2 2.6,-17.4 4.6,-28.1 1.7,-9.4 -12.1,-17.5 -19.7,-20.3 z m -126.9,14 c -6.9,-13.7 -15.9,-16.1 -20.4,-12.5 -3.4,2.7 -11.4,13.6 -11.9,14.3 -8.7,12.4 -8.2,15.4 3,22.5 6.3,4 11.4,-1.1 13.6,-2.7 -1.1,6.5 -4.3,16.8 -9.1,24.1 -2.6,-2 -4.5,-3.5 -5.7,-4.6 -1.5,-1.4 -3.8,-1.3 -5.3,0.1 -0.7,0.7 -1.1,1.6 -1,2.6 0,1 0.5,1.9 1.1,2.5 11.7,10.7 27,16.7 43.3,16.8 16.4,0 31.8,-6 43.5,-16.8 1.5,-1.4 1.6,-3.7 0.2,-5.1 -1.5,-1.5 -3.8,-1.5 -5.3,-0.1 -0.9,0.8 -1.8,1.6 -2.8,2.4 l -5.1,-11.4 c -0.8,-2 -1.7,-4.4 -2.7,-7.4 0.5,-1.2 1.6,-2.4 3.1,-4 1.1,-1.1 2,-2.2 2.7,-3.2 3.4,-5.4 1.5,-8.5 0.4,-10.6 -2.4,-4.9 -6.2,-3.3 -9,-0.4 -3.4,3.6 -6.7,5.1 -12,6.3 -4.4,1 -7.9,0.5 -10.7,-1.3 -3.9,-2.5 -9.9,-11.5 -9.9,-11.5 z m -65.4,-15.3 h -1.9 c -7.8,0.5 -13.2,3.9 -16.2,8.5 -3.5,-5.3 -10.1,-9 -20,-8.4 l -0.2,0.3 c -1.1,1.8 -5.4,10 1.5,18.9 1.4,1.5 4.9,5.8 3.5,11.2 l -20.2,32.6 c -1.6,2.7 -0.9,6.1 1.6,7.9 5.2,3.7 15.7,8.7 33.9,8.7 18.1,0 28.6,-5 33.8,-8.7 l 0.7,-0.6 c 2,-1.9 2.4,-4.9 0.9,-7.3 l -20.1,-32.6 0.1,0.6 -0.2,-0.9 c -1.1,-4.9 1.6,-8.8 3.2,-10.5 l 0.4,-0.4 c 7,-8.9 2.7,-17.1 1.5,-18.9 l -0.2,-0.3 z m 98.2,105 h -54.4 c -5.5,0 -10.1,4.5 -10.1,10 v 68.8 c 0,5.5 4.5,10.1 10.1,10.1 h 54.4 c 5.5,0 10.1,-4.5 10,-10.1 0,-5.5 -4.5,-10.1 -10,-10.1 h -44.4 v -14.3 h 38.6 c 5.5,0 10.1,-4.5 10.1,-10 0,-5.5 -4.5,-10.1 -10.1,-10.1 h -38.6 v -14.3 h 44.4 c 5.5,0 10.1,-4.5 10,-10.1 0,-5.4 -4.5,-9.9 -10,-9.9 z m -87,0 h -58.7 c -5.5,0 -10.1,4.5 -10.1,10 0,5.5 4.5,10.1 10.1,10.1 h 19.3 v 58.7 c 0,5.5 4.5,10.1 10,10.1 5.5,0 10.1,-4.5 10.1,-10.1 v -58.7 h 19.3 c 5.5,0 10.1,-4.5 10.1,-10.1 0,-5.5 -4.5,-10 -10.1,-10 z m 282.4,0 c -5.5,0 -10.1,4.5 -10.1,10 v 42.1 c 0,13.2 -7.5,20 -19.7,20 -12.3,0 -19.7,-7 -19.7,-20.6 v -41.5 c 0,-5.5 -4.5,-10.1 -10.1,-10 -5.5,0 -10.1,4.5 -10,10 v 41.9 c 0,24.5 15,37 39.5,37 24.5,0 40.1,-12.4 40.1,-37.6 v -41.3 c 0,-5.5 -4.4,-10 -10,-10 z m -155.7,0 h -6.2 c -5.5,0 -10.1,4.5 -10,10 v 68.9 c 0,5.5 4.5,10.1 10,10.1 5.5,0 10.1,-4.5 10.1,-10.1 v -45.2 l 16.9,23.9 c 3.5,4.9 10.8,4.9 14.4,0 l 16.9,-23.9 v 45.2 c 0,5.5 4.5,10.1 10.1,10.1 5.5,0 10.1,-4.5 10,-10.1 v -68.9 c 0,-5.5 -4.5,-10.1 -10,-10 h -6.2 c -2.4,0 -4.7,1.1 -6,3.1 l -21.9,33 -22,-33 c -1.4,-1.9 -3.7,-3.1 -6.1,-3.1 z m 117.2,-243.5 c 57.5,0 104.2,46.6 104.2,104.2 v 260.3 c 0,57.5 -46.6,104.2 -104.2,104.2 h -260.4 c -57.5,0 -104.2,-46.6 -104.2,-104.2 v -260.3 c 0,-57.5 46.6,-104.2 104.2,-104.2 0,0 260.4,0 260.4,0 z"
   clip-path="url(#SVGID_2_)"
   id="path2"
   style="fill:#fb7701" />

		</g>

	</g>
</g>
</svg>
